<?xml version="1.0" encoding="UTF-8"?>
<svg id="Layer_1" data-name="Layer 1" xmlns="http://www.w3.org/2000/svg" viewBox="0 0 696.102 679.2345">
  <defs>
    <style>
      .cls-1 {
        fill: #fff;
      }

      .cls-2 {
        stroke: #000;
      }

      .cls-2, .cls-3, .cls-4 {
        stroke-width: 1.8425px;
      }

      .cls-2, .cls-3, .cls-4, .cls-5, .cls-6 {
        stroke-miterlimit: 10;
      }

      .cls-7 {
        opacity: .31;
      }

      .cls-3 {
        opacity: .36;
      }

      .cls-3, .cls-4, .cls-5, .cls-6 {
        stroke: #534741;
      }

      .cls-3, .cls-5, .cls-6 {
        fill: none;
      }

      .cls-4, .cls-8 {
        fill: #736357;
      }

      .cls-5 {
        stroke-width: .5858px;
      }

      .cls-9, .cls-10, .cls-11 {
        fill: #534741;
      }

      .cls-12 {
        fill: #006837;
      }

      .cls-13 {
        opacity: .22;
      }

      .cls-10 {
        opacity: .24;
      }

      .cls-14 {
        opacity: .54;
      }

      .cls-15 {
        opacity: .15;
      }

      .cls-16 {
        opacity: .38;
      }

      .cls-17 {
        fill: #0071bc;
      }

      .cls-18 {
        opacity: .26;
      }

      .cls-6 {
        stroke-width: 1.3819px;
      }

      .cls-19 {
        opacity: .21;
      }

      .cls-11 {
        opacity: .78;
      }

      .cls-20 {
        opacity: .42;
      }

      .cls-21 {
        opacity: .25;
      }
    </style>
  </defs>
  <g>
    <path class="cls-17" d="m696.102,374.9612c0,168.0455-143.1917,304.2733-319.8276,304.2733S56.4468,543.0067,56.4468,374.9612c0-158.9897,128.1746-289.4985,291.5798-303.1028,9.3073-.7749,18.729-1.1705,28.2477-1.1705,6.3609,0,12.6784.1767,18.9475.5251,167.8158,9.3276,300.8801,141.7542,300.8801,303.7482Z"/>
    <path class="cls-12" d="m394.6968,128.0731c-.0801-.5491-.1578-1.0983-.2329-1.6476-2.5177-18.4057.4526-36.7224.7572-55.2135,0-.7879,89.5771,18.4423,97.6155,21.322,31.3118,11.2172,60.8301,27.443,86.9622,47.9919,19.6913,15.4843,11.3672,53.5683,8.0026,74.4349-1.5999,9.9223-3.4583,20.2331-9.4235,28.3321-6.0146,8.1661-15.167,12.7399-23.2717,18.4584-8.9564,6.3195-15.8229,14.5123-22.5063,23.1398-12.3697,15.9679-22.7125,32.0905-22.3201,53.1135.4065,21.7781,6.7317,40.7057.6609,62.6424-1.5466,5.5886-4.0142,11.5248-9.1752,14.1912-3.8144,1.9707-8.3496,1.7454-12.6331,1.4237-39.6646-2.9791-91.5455-4.3086-121.227-34.8574-18.3244-18.8598-17.8194-47.8018-15.7738-72.6441,2.3733-28.8222,11.2449-57.1595,26.103-82.0164,9.2924-15.5458,19.9869-27.4078,21.9813-46.3624,1.859-17.6688-2.9892-34.9588-5.5189-52.3087Z"/>
    <path class="cls-12" d="m120.5824,557.7592s41.9595-24.2701,44.4785-37.6709c2.519-13.4009,32.747-61.979,56.2576-47.7406,23.5107,14.2384,59.6163,21.7764,61.2956,63.6541,1.6793,41.8777-22.671,49.9252-31.0677,48.8329-8.3967-1.0923-26.8693,6.8796-26.8693,15.4569s17.4769,24.8167,15.9537,37.2171-14.1765,6.3366-14.1765,6.3366l-36.552-21.5908-32.2232-25.2044-22.735-22.4182-14.3618-16.8728Z"/>
    <path class="cls-12" d="m494.4581,657.7802s-28.3006-44.2139,0-72.9455c28.3006-28.7316,42.5749-41.2949,63.5666-42.97,20.9917-1.6751,37.785,4.1878,45.342,10.8882,7.557,6.7004,14.2367,21.8791,14.2367,21.8791l-60.5282,51.3369-33.9462,19.3588-28.6709,12.4524Z"/>
    <path class="cls-12" d="m183.3391,328.3433c3.4022,6.0608-.8179,14.2416,2.6919,20.4256,4.0151,7.0745,11.9754,8.0487,19.3349,6.321,14.2746-3.3511,41.5803-26.8018,30.8658-39.3648-10.7146-12.563-30.3912-34.3387-54.1386-33.5022-14.0609.4953-19.9337,12.7379-16.9551,25.3607,1.3764,5.8328,4.5659,11.8899,9.377,15.6244,1.7735,1.3766,6.9019,2.516,8.0025,3.908.3138.398.586.8076.8216,1.2273Z"/>
  </g>
  <path class="cls-4" d="m211.3537,69.3987c-30.2984,4.8336-60.0808,14.8266-87.2633,26.7067-27.2457,11.9078-44.9771,27.9411-62.9702,50.7533-12.8863,16.3376-23.8706,33.9892-34.827,51.5772C4.5235,233.3821-.7685,278.7917,1.353,319.2239c1.4712,28.0382,6.2397,55.5596,7.6592,83.6156,1.6713,33.0329,16.8737,55.0651,37.8015,79.4887,11.8655,13.8475,24.9992,26.1932,33.1294,42.6809,6.1077,12.3861,20.9853,16.3149,34.8147,15.6562,4.1611-.1983,8.1207-1.7126,11.9927-3.2079,5.6893-2.1971,11.6371-4.5741,15.4935-9.1974,2.5163-3.0167,3.9223-6.7461,5.2179-10.4205,4.6257-13.118,1.0817-20.7042-3.3114-33.2996-.5541-1.5888-1.1195-3.1996-2.0909-4.5859-1.3135-1.8744-3.2751-3.2091-5.1923-4.5009-3.8857-2.6183-7.7713-5.2365-11.6569-7.8548-18.2216-12.2783-13.5142-23.3137-10.1089-42.0807,6.9498-38.3003,18.764-75.4953,33.4626-111.599,1.9071-4.6843,2.2413-7.1186,6.5417-9.2138,7.9453-3.871,22.1222.8609,30.6574.8562,4.971-.0029,9.9124-.6815,14.8344-1.3589,16.7853-2.31,22.1496-16.9431,36.39-24.1366,5.2353,7.9035,6.1155,22.1061,8.8767,31.5472,3.2608,11.1489,6.8917,22.1916,10.3664,33.2783,4.2515,13.5647,12.6312,24.8585,21.2498,36.1083,8.5449,11.1539,9.9731,21.5318,13.5835,34.4032,4.1681,14.8598,11.4266,28.7583,14.5339,43.9256,1.9252,9.3971,6.8148,17.9513,12.0443,26.0728,12.7217,19.7569,29.8397,53.6942,55.0018,60.5503,11.0242,3.0039,22.6553-.8853,33.4007-4.7274,3.4014-1.2161,6.8976-2.4875,9.5649-4.8734,2.3023-2.0594,3.8195-4.8058,5.1407-7.5632,13.1638-27.4742,9.1673-59.3826-7.2425-84.5719-19.1999-29.4722-24.619-63.0453-29.3687-97.112,0,0,9.049-37.9916,9.0502-37.9965,3.4883-14.6453,11.562-30.4363,17.4348-44.3784,8.6647-20.5698,21.3266-39.2506,33.8485-57.7397,6.3577-9.3874,18.3777-6.9694,28.6577-6.8932,12.6703.0938,25.3417.3499,38.0111.5248,11.3407.1566,23.2453.1865,33.239-5.0293,11.2022-5.8466,18.4685-16.5299,30.2216-21.6474,12.9019-5.6177,27.2287-4.3983,40.7559-7.5528,10.3086-2.4057.2057-36.9174-1.879-44.802-4.7031-17.7867-12.4899-34.8091-23.0259-50.0553-4.7083-6.8132-9.9944-13.3206-16.4098-18.6558-18.4976-15.3829-47.5146-21.0327-71.4289-21.0327h-16.4549s-8.0815-12.5752-8.2255-12.7993c-3.7499-5.8349-10.0145-10.2397-15.1233-14.8916-1.1747-1.0696-2.3961-2.1674-3.9148-2.6871-8.0444-2.752-26.1313,5.6654-33.6593,8.2624-9.0401,3.1186-17.7619,8.5448-22.0512,16.8886-7.6793,14.9383,2.6085,28.0837,14.1632,36.9894-9.8296-3.6203-19.5953-7.4207-29.3868-11.1405-1.5507-.5891-3.1323-1.1851-4.7937-1.2877-1.9854-.1227-3.936.4666-5.8331,1.049-9.503,2.9174-19.1763,5.9153-27.3193,11.5018-13.1665,9.0328-18.269,10.1642-33.9867,10.0198-11.2955-.1037-22.0321-2.5842-33.086-4.5615-23.5034-4.2039-47.7066-3.5996-71.5891.2104Z"/>
  <path class="cls-2" d="m529.6805,137.9257l-8.5338-8.7363c-1.2031-1.2316-1.3284-3.1237-.2978-4.4952l.9206-1.2252c3.1055-4.1329,8.4389-6.0766,13.5724-4.9462l6.8839,1.5158c4.1584.9157,7.8169,3.305,10.262,6.702l2.6979,3.7482c2.955,4.1054,2.6764,9.6358-.677,13.4407h0c-1.1554,1.3109-2.9895,1.8482-4.6971,1.3761l-14.3133-3.9576c-2.2193-.6136-4.2284-1.7956-5.8175-3.4224Z"/>
  <polyline class="cls-6" points="494.7981 145.4745 528.1193 153.4676 541.2752 174.7962"/>
  <path class="cls-8" d="m619.9192,161.8849c6.8918-.877,14.3712,1.609,20.6051-1.3804,4.8904-2.3451,7.6313-7.4706,9.5653-12.4286,2.8015-7.1818,4.619-14.951,3.4125-22.5421-1.0516-6.6159-4.3525-12.7337-8.4844-18.088-3.3506-4.3418-7.4377-8.3743-12.6225-10.3852-8.9767-3.4815-17.1432,2.4538-25.054,5.9976l6.1375,18.5306s5.0929,21.4768,5.0929,21.4768c.4484,6.2678.8969,12.5356,1.3475,18.8193Z"/>
  <path class="cls-2" d="m534.9353,88.3429c1.0182,2.5104-8.5111,5.2162-10.009,5.4612-2.9623.4844-6.0465.2221-8.8855-.7279-.8649-.2894-3.0592-.866-3.2689-1.7441-.2361-.9886,1.6718-3.4823,2.1065-4.3978,1.1088-2.3338,6.0519-1.9301,8.1351-1.8557,3.9229.1401,7.726.8245,11.2229,2.6336.259.134.5306.2881.6597.5442.0145.0288.0276.0576.0393.0865Z"/>
  <ellipse class="cls-1" cx="523.8815" cy="89.5238" rx="3.5879" ry="3.4893"/>
  <ellipse cx="523.8815" cy="89.5238" rx="1.3923" ry="1.3541"/>
  <path class="cls-2" d="m573.1433,104.9616c-2.6449.8162,1.2108,9.7127,1.9607,10.9973,1.4831,2.5405,3.6388,4.7017,6.1882,6.2439.7767.4698,2.6214,1.7614,3.4541,1.3654.9375-.4458,1.7225-3.4588,2.1783-4.3646,1.1617-2.3094-2.2799-5.7837-3.6539-7.3082-2.5875-2.871-5.5335-5.3081-9.1833-6.8045-.2703-.1108-.5646-.2184-.8503-.1542-.0321.0072-.0634.0155-.0938.0249Z"/>
  <ellipse class="cls-1" cx="579.6943" cy="114.28" rx="3.5879" ry="3.4893"/>
  <ellipse cx="579.4894" cy="114.7271" rx="1.3923" ry="1.3541"/>
  <path class="cls-5" d="m536.781,179.3047c-.2285-2.8135,2.6624-5.7413,5.6423-6.3284,2.4661-.4859,4.7424.6808,5.0855,2.9003"/>
  <path class="cls-5" d="m490.2812,152.3645c2.8413-.5742,4.9221-4.0929,4.6676-7.0394-.2107-2.4385-1.9995-4.2372-4.2866-3.9362"/>
  <line class="cls-6" x1="528.1193" y1="153.4676" x2="533.6728" y2="141.356"/>
  <g class="cls-14">
    <line class="cls-8" x1="130.3209" y1="536.1396" x2="104.577" y2="521.4545"/>
    <polygon points="129.9785 536.7397 104.577 521.4545 130.6632 535.5394 129.9785 536.7397 129.9785 536.7397"/>
  </g>
  <g class="cls-14">
    <line class="cls-8" x1="146.7447" y1="516.6699" x2="121.0008" y2="501.9848"/>
    <polygon points="146.4023 517.2701 121.0008 501.9848 147.087 516.0698 146.4023 517.2701 146.4023 517.2701"/>
  </g>
  <g class="cls-14">
    <line class="cls-8" x1="385.7794" y1="547.4382" x2="375.7518" y2="520.0998"/>
    <polygon points="385.1307 547.6761 375.7518 520.0998 386.428 547.2003 385.1307 547.6761 385.1307 547.6761"/>
  </g>
  <g class="cls-14">
    <line class="cls-8" x1="407.6147" y1="541.3258" x2="397.5871" y2="513.9874"/>
    <polygon points="406.966 541.5637 397.5871 513.9874 408.2633 541.0879 406.966 541.5637 406.966 541.5637"/>
  </g>
  <g class="cls-20">
    <path class="cls-9" d="m150.5783,307.6011c-10.6109-6.3826-21.4124-14.1253-27.4205-25.4527-3.6535-6.5398-6.2619-13.8431-8.4143-20.9396-2.9267-9.3696-4.97-19.0523-6.6711-28.69-1.1759-4.1606-1.5806-10.1254-2.0011-14.4496-.4119-4.8479-.7962-9.6871-1.0996-14.5591,1.4878,4.6466,2.791,9.3451,4.0569,14.0364,1.1588,4.7112,2.7273,9.3316,3.3038,14.1183,3.1235,13.9916,7.2553,27.7674,14.802,39.9104,2.4075,3.8313,4.8965,7.8163,7.6594,11.3038,5.777,7.2448,13.2867,13.2033,19.3972,20.5175,0,0-3.6125,4.2044-3.6125,4.2044h0Z"/>
  </g>
  <g class="cls-20">
    <path class="cls-9" d="m235.4794,280.5314c-3.7067-4.7478-7.3047-10.1077-8.2235-16.2597-.5512-3.6351-.4804-7.3806-.182-11.0246.6618-7.2092,1.9323-14.2325,4.1867-21.0297.7553-2.244,1.5231-4.4774,2.3307-6.7118-.2146,2.3651-.5296,4.7173-.8584,7.0585-1.4212,9.1607-3.7622,18.3035-1.7078,27.5388.9887,6.9319,4.4366,12.2759,6.9122,19.1046-.0002,0-2.4578,1.324-2.4578,1.324h0Z"/>
  </g>
  <path class="cls-11" d="m454.3584,22.0136c4.8182,6.2904-.0101,11.9803-7.2981,17.2601-7.288,5.2798-14.2759,8.1502-19.094,1.8597-4.8182-6.2904-3.9218-17.1138,3.3662-22.3936,7.288-5.2798,18.2078-3.0167,23.026,3.2737Z"/>
  <g class="cls-19">
    <path class="cls-9" d="m570.9996,174.1342c1.4579-5.8264-.4546-12.4115-.0668-18.5306.2816-3.8665,1.6287-7.3871,1.5333-11.3213.0544-5.0167-1.1061-10.006-2.4321-14.8605-1.5723-4.8332-2.7291-10.0808-3.2457-15.1418,1.2581,3.5112,2.8381,7.3259,4.2458,10.7923,1.9379,6.2552,4.1162,12.308,4.8905,19.0134.3241,2.669.4371,5.424.0986,8.1671-.4474,2.3589-.4263,4.7676-.347,7.2087.0416,5.2375.7537,11.2347-2.2188,15.9966-.0002,0-2.4578-1.3239-2.4578-1.3239h0Z"/>
  </g>
  <g class="cls-7">
    <path class="cls-9" d="m14.2099,245.4036l7.2379-32.0393c1.2328-2.7607,2.4661-5.5189,3.8435-8.1844,3.8758-7.505,8.1229-14.8257,12.7995-21.8506,7.4413-8.8083,15.2642-17.2889,23.411-25.4522,3.3575-3.0049,6.9185-5.7957,10.4435-8.6122,3.512-2.7341,7.0524-5.4164,10.758-7.9089-4.5831,7.056-11.1748,15.3644-15.8221,21.0377-6.0201,8.6222-15.3088,20.8142-20.6453,26.9597-6.0447,9.192-12.3867,18.2145-19.834,26.3476,0,0,.3157-.6695.3157-.6695l-12.5079,30.372h0Z"/>
  </g>
  <g class="cls-21">
    <path class="cls-9" d="m131.2993,336.8962c-3.4056,11.0007-7.2582,21.9471-11.2364,32.7603-4.7358,14.0896-9.543,28.1223-15.0914,41.9778,4.0381-19.4489,8.5655-38.8153,14.7458-57.6896,1.996-6.3049,4.11-12.5725,6.3394-18.8002,0,0,5.2425,1.7518,5.2425,1.7518h0Z"/>
  </g>
  <g class="cls-13">
    <path class="cls-9" d="m66.0428,495.0497c7.9986,4.0967,21.5174,16.8115,20.9803,26.4047-1.3801-2.1281-3.8356-4.4582-5.5214-6.3223-5.7187-6.2492-11.3044-12.5883-15.4588-20.0823h0Z"/>
  </g>
  <g class="cls-18">
    <path class="cls-9" d="m296.2056,403.8328c10.6633,12.326,18.3947,34.0942,17.2779,50.4092-10.8833-12.1896-18.1384-34.123-17.2779-50.4092h0Z"/>
  </g>
  <path class="cls-3" d="m463.4284,193.3798c-5.7196.1374-11.4562-.0577-17.1769-.1267-1.7738-.0214-3.6256-.0263-5.2168.7466-4.502,2.1928-7.6899,15.2382-9.6932,19.5979"/>
  <g class="cls-15">
    <path class="cls-9" d="m502.3031,35.9649c30.8458-6.1827,77.3014,10.1857,84.8573,43.8079-3.1896-2.9729-6.1752-5.7359-9.2968-8.2512-22.3237-17.6455-49.3464-25.0931-75.5605-35.5566h0Z"/>
  </g>
  <g class="cls-16">
    <path class="cls-9" d="m630.5968,104.9295c3.7428,1.867,6.8458,4.2654,9.8086,6.7802,3.1404,2.9063,5.825,5.1759,8.3587,8.821,1.4548,2.1095,1.6557,5.4715,1.4056,7.7358-.4866,5.9183-1.4958,11.7567-4.1205,17.205-2.9459-6.1163-3.6858-13.0301-4.1498-19.6134-.2071-1.2686-.6716-1.5184-1.6148-2.8529-4.1285-5.5762-7.6277-11.2354-9.6878-18.0757h0Z"/>
  </g>
  <ellipse class="cls-10" cx="521.7891" cy="87.8883" rx="19.486" ry="8.1153"/>
  <ellipse class="cls-10" cx="579.6943" cy="114.7271" rx="8.2635" ry="19.1366" transform="translate(46.9383 370.4199) rotate(-36.8331)"/>
</svg>