<?xml version="1.0" encoding="UTF-8"?>
<svg id="Layer_1" data-name="Layer 1" xmlns="http://www.w3.org/2000/svg" viewBox="0 0 236.1521 259.658">
  <defs>
    <style>
      .cls-1 {
        fill: #59273b;
        opacity: .91;
      }

      .cls-2 {
        fill: #fff;
      }

      .cls-3 {
        stroke: gray;
      }

      .cls-3, .cls-4, .cls-5, .cls-6, .cls-7, .cls-8, .cls-9, .cls-10, .cls-11, .cls-12, .cls-13 {
        stroke-miterlimit: 10;
      }

      .cls-3, .cls-7, .cls-10 {
        stroke-width: .7635px;
      }

      .cls-3, .cls-9, .cls-14 {
        fill: #999;
      }

      .cls-4 {
        opacity: .34;
        stroke-width: 1.0177px;
      }

      .cls-4, .cls-5, .cls-12 {
        stroke: #534741;
      }

      .cls-4, .cls-13 {
        fill: none;
      }

      .cls-15 {
        fill: #998675;
      }

      .cls-16, .cls-7 {
        fill: #534741;
      }

      .cls-17 {
        opacity: .29;
      }

      .cls-5 {
        stroke-width: .3816px;
      }

      .cls-5, .cls-18, .cls-12 {
        fill: #736357;
      }

      .cls-6, .cls-7, .cls-10 {
        stroke: #000;
      }

      .cls-6, .cls-12 {
        stroke-width: .5088px;
      }

      .cls-8, .cls-9, .cls-11, .cls-13 {
        stroke: #666;
        stroke-width: .2544px;
      }

      .cls-8, .cls-19 {
        fill: #b3b3b3;
      }

      .cls-11 {
        fill: gray;
      }

      .cls-20 {
        opacity: .42;
      }

      .cls-21 {
        fill: #1a1a1a;
      }
    </style>
  </defs>
  <g>
    <path class="cls-18" d="m69.6906,3.0411c.0431-.0551.0893-.1078.1348-.1588.5728-.6424,1.1456-1.2849,1.7184-1.9273.1239-.139.2522-.2813.4156-.3589.4144-.1968.892-.5613,1.3419-.5573.5458.0049,1.4907-.0464,2.0365-.0379,1.0543.0164,1.7559.4281,2.6555,1.1019.7832.5866,1.5663,1.1731,2.3495,1.7597.1772.1327.3614.274.4587.4822.2138.4576-.1231,1.0399-.593,1.0326-2.7509-.0427-5.5017-.0855-8.2526-.1282-.5884-.0091-1.5233.1515-2.0517-.0981-.2437-.1152-.4415-.3848-.4145-.6714.0156-.1659.0995-.3089.2008-.4385Z"/>
    <path class="cls-12" d="m61.7343,64.9852c2.5708,3.3708,5.0887,6.7934,7.6361,10.1804,3.812,5.0748,7.5827,10.1861,11.3115,15.333,3.6071,4.979,8.0021,9.3465,12.0887,13.8946.9278,1.0342,1.8682,2.057,2.7843,3.1035,1.5505,1.7712.8125,1.9667-1.1513,3.3375-3.6943,2.5787-7.5319,4.9164-11.4857,6.9953-3.3461,1.7593-7.222,3.12-8.6574,7.2527-.3114.8966-.6228,1.7932-.9343,2.6898-.1316.3788-.2689.768-.5228,1.065-.2513.2939-.5946.4716-.9291.6425-1.7188.8779-9.6451,3.6524-9.6718,5.7163-.029,2.2358-.058,4.4716-.087,6.7074-.004.3067-.0038.6312.1405.8951.1767.3231.5249.4781.8503.6076,2.624,1.0436,5.3614,1.8699,8.1479,2.187,4.1421.4714,8.4109-.2953,12.162-2.2671,2.9248-1.5375,5.6073-3.7926,8.8026-4.4427,2.9095-.592,5.8264.3161,8.7375.3602,3.1483.0477,6.2981.1928,9.4455.2891,4.3181.1322,7.1782-1.0767,10.9888-2.9915,0,0,35.5728,35.0069,35.8573,35.2869.8275.8143.6322,5.6173.7852,6.7877,1.0085,7.7169,3.3404,14.1591,6.2049,21.2513.22.5448.441,1.0928.5725,1.6701.2161.9488.1827,1.9407.148,2.9172-.1847,5.2009.5438,10.5974-3.5837,14.2053-.6546.5722-1.3681,1.1223-1.7631,1.9267-.5022,1.0227,1.5754,7.4115,2.707,7.4115,5.9131.435,11.8319.7837,17.7469,1.189.5524.0378,1.1115.0753,1.6559-.033.6886-.137,1.3185-.4997,1.9358-.8575.8036-.4658,1.6071-.9315,2.4107-1.3973.3444-.1996.6953-.4045.9636-.712.2838-.3251.4564-.7433.614-1.1569,2.0748-5.4503,1.7838-11.0033,1.86-16.7535-.0156,1.181,2.6923,4.0971,3.3051,5.0313,1.8169,2.7698,3.6406,5.5343,5.4632,8.2997.2507.3804.504.7658.6611,1.2012.1854.5139.2283,1.073.2692,1.623.217,2.9149.6613,6.5647-.4807,9.3314-1.0021,2.428-3.3731,4.2273-5.203,5.8803-.3716.3356-.759.6769-.9846,1.1418-1.3568,2.8014,4.4968,8.9072,6.6206,9.7742,1.3164.5374,2.7511.6089,4.1577.634,6.0008.1071,12.0125-.5227,17.883-1.8737.6327-.1456,1.2776-.3055,1.8262-.6767.3973-.2688.7275-.6376,1.0437-1.0118,3.8329-4.5368,3.8176-8.7823,3.7458-14.508-.0853-6.8055-.3522-13.6063-.1311-20.4126.3121-9.6082,1.939-19.0721,4.2146-28.3399.9837-4.0064,2.5983-7.9463,3.435-11.9684.7406-3.5601.3707-7.7841.4705-11.4578.1153-4.2418.1712-8.492-.0951-12.7289-.9438-15.0154-4.8195-30.0449-7.6701-44.7227-.2739-1.4103-.5496-2.8275-1.0251-4.1735-2.3747-6.7223-7.156-12.5426-11.9992-17.2912-6.1989-6.0778-13.0132-11.1798-19.5438-16.7957-4.2832-3.6856-9.612-5.4635-14.3263-8.3495-2.7911-1.7086-5.6697-3.3833-8.5483-4.9098-2.4857-1.3182-4.5873-3.3821-6.5873-5.4699-4.1747-4.358-7.6768-9.4735-10.2939-15.0784-1.5979-3.4221-2.8862-7.0493-4.9774-10.1438-2.6567-3.9314-6.4732-6.7841-10.4965-8.9626-2.0533-1.1118-4.1978-2.0742-6.4545-2.53-2.5174-.5085-5.0859-.3667-7.6286-.2433s-5.0323-.0334-7.5674-.0727l-13.0031-.202-8.5188-.1323c-1.5133-.0235-4.7353-3.3719-5.9857-4.2635-.4064-.2898-.8156-.5812-1.2632-.788-.7129-.3293-1.4948-.4315-2.2644-.5303-4.4423-.5702-8.4066-.9424-12.8558-.5144-4.4301.4263-8.8501.9687-13.2612,1.5828-4.5037.627-8.1702-.8567-12.3563-2.3418-.2-.071-.4129-.1427-.6175-.0888-.1856.0489-.3349.1937-.4757.3336-.8692.8633-2.0756,2.5612-3.1214,3.1275-.5203.5134-.5768,2.9524-.7085,3.6547-.3483,1.8578-.9692,3.6383-1.462,5.4531-.5091,1.8749-.9948,4.0409-.6595,6.0031.3451,2.0196,1.6577,2.8876,2.8222,4.4088,1.4983,1.9572,2.9908,3.9197,4.4876,5.8784.9593,1.2555-5.3442,11.1254-6.33,12.7053-1.4436,2.3135-2.8889,4.6251-4.3086,6.9559.9087,1.8336,1.9075,3.7679,3.5981,4.7568,1.9443,1.1374,4.3132,1.7215,6.355,2.7339,2.2677,1.1244,4.5712,1.9584,7.1013,1.6488.5547-.0679,1.134-.1738,1.6573.0367.4893.1968.8523.6406,1.1922,1.0696,1.0534,1.3296,2.093,2.6732,3.1241,4.0252Z"/>
    <path class="cls-5" d="m74.0734,123.7724c-.2353.2424-.4658.4918-.691.7486-3.7943,4.3264-10.6903,6.1143-16.0496,6.9181-2.263.3394-4.5964.4458-6.8071-.1783-1.7001-.48-3.8859-1.5736-4.8408-3.2769-1.0506-1.8739-.2703-4.2314-.2458-6.3389.0027-.2372.0091-.4881.126-.6887.1333-.2288.3804-.3423.6124-.4426,1.7042-.737,3.4075-1.6178,5.1474-2.246,3.6794-1.6191,6.6292-5.01,8.8188-8.5257.6751-1.0839,1.3065-2.2442,2.2744-3.0255,2.7636-2.2309,7.1156-3.758,10.3261-5.0736,1.5786-.6469,3.202-1.2402,4.5881-2.2832,2.5201-1.8962,3.0309-5.3437,3.9522-8.3147l1.9356,2.7026,5.5664,6.2046,5.9416,6.6228,2.1373,2.3823c.1677.1869-10.1232,6.7337-11.0771,7.2271-4.0997,2.1207-8.389,4.1612-11.7148,7.5879Z"/>
    <path class="cls-6" d="m53.4536,3.3998c.3852.8711.1229,2.0455.1119,3.1575-.0022.2203-.007.4516-.1084.6425-.0684.1289-.1753.2279-.2809.3228-1.4469,1.3-4.9659,2.891-6.7415,1.3382-.2761-.2415-.4561-.5853-.6296-.9206-.7325-1.4158-2.1074-2.8564-.6297-4.183.7207-.647,1.7893-2.0658,2.7486-2.21.461-.0693.9277.0372,1.3811.1515,1.0851.2735,2.3821.2781,3.3785.8588.3834.2234.6236.5109.7701.8423Z"/>
    <path class="cls-6" d="m46.6792,15.4596c.4415.2853.8312.664,1.2149,1.0383,2.2632,2.2079,4.5859,4.3554,6.8457,6.5598,2.3563,2.2985,4.0953,5.2392,5.8048,8.1003.1472.2464.2974.5005.3504.7883.0493.2678.0106.5444-.0282.8143-1.137,7.9073-7.1545,15.7834-14.1083,18.4203-1.2982.4923-8.0968,2.7027-7.1957-1.2862.16-.7082.7068-1.219,1.1563-1.7617.7415-.8953,1.2653-1.9715,1.8168-3.0154,2.2852-4.3258,5.3805-7.8718,7.0991-12.5828.436-1.1951.9003-2.4311.3333-3.6721-.3189-.6979-.8268-1.2692-1.319-1.8367-2.1022-2.4238-5.967-5.7552-5.2217-9.3847.1376-.67.2872-1.3602.6634-1.9161.5688-.8389,1.4411-.8715,2.2819-.4427.1051.0536.207.113.3063.1772Z"/>
    <path class="cls-1" d="m60.8834,31.996c-.0353-.0657-.0836-.1099-.147-.128-2.4611-.7003-5.1525-.0309-7.295,1.4563-1.4483,1.0054-6.4171,5.5707-4.654,7.9147.1574.2092.3757.353.5946.4819,1.317.775,2.9053,1.1515,4.332.6543,2.3757-.828,2.4785-3.0538,3.5405-5.0702.6126-1.163,1.8367-1.838,3.06-1.7726.2739-.7959,1.0105-2.7154.5689-3.5364Z"/>
    <path class="cls-6" d="m65.3453,11.1836c-.5342.5327,1.3929,2.4196,1.717,2.6689.6409.493,1.3981.8052,2.1781.9067.2377.0309.8221.1507.9744-.0537.1715-.2302.0146-1.1199.0196-1.4138.0125-.7492-1.1991-1.2539-1.6984-1.4917-.9404-.4478-1.9164-.7381-2.9521-.6955-.0767.0032-.1587.01-.2192.0613-.0068.0058-.0133.0117-.0194.0178Z"/>
    <ellipse class="cls-2" cx="67.7573" cy="12.7186" rx=".9389" ry="1.0169"/>
    <ellipse cx="67.7165" cy="12.6252" rx=".3643" ry=".3946"/>
    <g class="cls-20">
      <path class="cls-16" d="m121.0178,136.4026c3.0518-2.7678,5.9494-5.1762,7.904-8.2686,5.123-8.3105,6.3367-18.4242,8.1075-27.8893.4074-1.9435.8448-3.8873,1.3313-5.8191-.1777,3.9711-.062,7.9772-.7296,11.8968-.9862,7.987-2.2337,16.0852-5.658,23.4945-1.8653,3.9075-4.8116,7.0249-7.0612,10.1041l-3.8939-3.5183h0Z"/>
    </g>
    <path class="cls-4" d="m157.2495,171.8293c4.1458,3.7254,8.3802,7.3732,12.9923,10.4065,2.3238,1.5283,4.7387,2.8964,7.2455,4.0383,1.0137.4617,2.049.9728,3.0927,1.344,1.0838.3855,2.4157.415,3.1721,1.4791.2468.3471.3904.765.5306,1.176,1.567,4.5944,3.1827,9.1681,4.7902,13.7461l.4326,4.2571"/>
    <path class="cls-18" d="m101.9913,19.9743c.1812.1436.3914.2413.5987.3371.2977.1376.5955.2753.8932.4129.0757.035.1582.0707.2382.0494.0752-.0201.1312-.0862.1824-.1491,1.2025-1.476,2.4198-2.9302,3.6536-4.3754.1266-.1483.2564-.3022.3187-.4927.0405-.1238.05-.2566.0592-.3875.0862-1.2287.1686-2.471-.0108-3.6879-.1487-1.0087-.4739-1.9755-.7972-2.935-.1399-.4151-.2821-.8352-.5122-1.2001-.4438-.7037-1.247-.901-1.9112-1.2826-1.2324-.7079-2.378-.9103-3.7691-.9071-.5232.0012-1.0464.0084-1.5696.0155-.9295.0127-1.5299.9591-2.1654,1.603-.8039.8144-1.6072,1.6295-2.4106,2.4445-.0258.0262-.0532.0555-.0581.0935-.0051.0398.016.0775.0363.1112.6785,1.1293,1.3229,2.2858,2.0198,3.4017.2875.4851.5408,1.074.9388,1.4638.379.3713.8985.5353,1.2654.9251.4005.4255.6766,1.0575.9893,1.5652.4916.7982.9926,1.5897,1.5027,2.3742.1308.2012.2643.4044.4389.5618.0225.0203.0455.0397.069.0583Z"/>
    <g class="cls-17">
      <path class="cls-15" d="m210.1375,77.4581c4.1137,3.2313,7.442,7.2876,10.8901,11.1856,0,0,3.9458,6.1653,3.9458,6.1653l.0335.0524c.0246.0262,2.1349,4.9284,2.1582,4.9602,0,0,.0249.0572.0249.0572l.0108.051c1.7396,8.0302,4.0673,19.4485,5.6992,27.3897,0,0-.9402.1923-.9402.1923-1.5326-7.9107-4.0356-19.365-5.8194-27.3517,0,0,.0357.1078.0357.1078l-2.2751-4.8633.0494.089c.0658.1003-4.4551-6.3629-4.1268-5.9104-3.4693-3.8302-7.1631-7.4317-10.192-11.6463.0001,0,.5058-.4789.5058-.4789h0Z"/>
    </g>
    <path class="cls-21" d="m49.378,126.136c.1785.2728.2651.6197.3246.9538.0777.4361.1166.9212-.1075,1.2932-.4259.7067-1.4895.9874-2.0817,1.5291-.4663.4265-.8649.9408-1.1696,1.5138-.2413.4539-.361,1.2982-.9122,1.4166-.1418.0305-.2896.0375-.4319.0633-.15.0272-.2933-.0738-.3134-.2371-.0508-.4129-.1327-1.0795-.1381-1.1516-.062-.8129-.061-1.407.3491-2.1297.5066-.8928,1.0783-1.7423,1.7079-2.538.3304-.4175.6898-.8307,1.1517-1.059s1.0519-.2324,1.4373.1256c.0704.0654.1312.1395.1839.2201Z"/>
    <path class="cls-21" d="m47.2444,121.8531c.1785.2728.2651.6197.3246.9538.0777.4361.1166.9212-.1075,1.2932-.4259.7067-1.4895.9874-2.0817,1.5291-.4663.4265-.8649.9408-1.1696,1.5138-.2413.4539-.361,1.2982-.9122,1.4166-.1418.0305-.2896.0375-.4319.0633-.15.0272-.2933-.0738-.3134-.2371-.0508-.4129-.1327-1.0795-.1381-1.1516-.062-.8129-.061-1.407.3491-2.1297.5066-.8928,1.0783-1.7423,1.7079-2.538.3304-.4175.6898-.8307,1.1517-1.059s1.0519-.2324,1.4373.1256c.0704.0654.1312.1395.1839.2201Z"/>
    <path class="cls-21" d="m65.944,140.5578c.1785.2728.2651.6197.3246.9538.0777.4361.1166.9212-.1075,1.2932-.4259.7067-1.4895.9874-2.0817,1.5291-.4663.4265-.8649.9408-1.1696,1.5138-.2413.4539-.361,1.2982-.9122,1.4166-.1418.0305-.2896.0375-.4319.0633-.15.0272-.2933-.0738-.3134-.2371-.0508-.4129-.1327-1.0795-.1381-1.1516-.062-.8129-.061-1.407.3491-2.1297.5066-.8928,1.0783-1.7423,1.7079-2.538.3304-.4175.6898-.8307,1.1517-1.059s1.0519-.2324,1.4373.1256c.0704.0654.1312.1395.1839.2201Z"/>
    <path class="cls-21" d="m63.7472,135.1027c.1785.2728.2651.6197.3246.9538.0777.4361.1166.9212-.1075,1.2932-.4259.7067-1.4895.9874-2.0817,1.5291-.4663.4265-.8649.9408-1.1696,1.5138-.2413.4539-.361,1.2982-.9122,1.4166-.1418.0305-.2896.0375-.4319.0633-.15.0272-.2933-.0738-.3134-.2371-.0508-.4129-.1327-1.0795-.1381-1.1516-.062-.8129-.061-1.407.3491-2.1297.5066-.8928,1.0783-1.7423,1.7079-2.538.3304-.4175.6898-.8307,1.1517-1.059s1.0519-.2324,1.4373.1256c.0704.0654.1312.1395.1839.2201Z"/>
    <path class="cls-21" d="m52.7843,129.2461c.1785.2728.2651.6197.3246.9538.0777.4361.1166.9212-.1075,1.2932-.4259.7067-1.4895.9874-2.0817,1.5291-.4663.4265-.8649.9408-1.1696,1.5138-.2413.4539-.361,1.2982-.9122,1.4166-.1418.0305-.2896.0375-.4319.0633-.15.0272-.2933-.0738-.3134-.2371-.0508-.4129-.1327-1.0795-.1381-1.1516-.062-.8129-.061-1.407.3491-2.1297.5066-.8928,1.0783-1.7423,1.7079-2.538.3304-.4175.6898-.8307,1.1517-1.059s1.0519-.2324,1.4373.1256c.0704.0654.1312.1395.1839.2201Z"/>
    <path class="cls-21" d="m70.617,143.2988c.1785.2728.2651.6197.3246.9538.0777.4361.1166.9212-.1075,1.2932-.4259.7067-1.4895.9874-2.0817,1.5291-.4663.4265-.8649.9408-1.1696,1.5138-.2413.4539-.361,1.2982-.9122,1.4166-.1418.0305-.2896.0375-.4319.0633-.15.0272-.2933-.0738-.3134-.2371-.0508-.4129-.1327-1.0795-.1381-1.1516-.062-.8129-.061-1.407.3491-2.1297.5066-.8928,1.0783-1.7423,1.7079-2.538.3304-.4175.6898-.8307,1.1517-1.059s1.0519-.2324,1.4373.1256c.0704.0654.1312.1395.1839.2201Z"/>
    <path class="cls-21" d="m206.5521,248.6943c.1505.292.2022.6469.2283.986.0341.4426.0248.9295-.2349,1.2733-.4933.6531-1.5787.8087-2.221,1.2785-.5058.3699-.9531.8349-1.3127,1.3693-.2849.4233-.4874,1.2488-1.0472,1.3025-.1439.0138-.2917.0037-.4357.0128-.1518.0096-.2843-.1075-.2881-.2722-.0096-.4164-.025-1.0887-.0234-1.161.0188-.8154.0786-1.406.5578-2.0769.592-.8289,1.2445-1.6071,1.9493-2.3251.3698-.3768.768-.7458,1.2499-.9192s1.0688-.1089,1.4166.2918c.0635.0732.1166.154.161.2402Z"/>
    <path class="cls-21" d="m200.9403,246.7619c.1502.2921.2017.6471.2275.9862.0337.4426.024.9295-.2359,1.273-.4939.6527-1.5793.8073-2.222,1.2764-.5061.3695-.9537.834-1.3138,1.368-.2852.423-.4884,1.2483-1.0482,1.3015-.144.0137-.2917.0034-.4357.0124-.1519.0095-.2842-.1077-.2879-.2724-.0093-.4164-.0242-1.0887-.0224-1.161.0195-.8154.0797-1.4059.5595-2.0764.5927-.8283,1.2458-1.6059,1.9511-2.3233.3701-.3764.7686-.7451,1.2506-.918s1.0689-.1079,1.4164.2931c.0635.0733.1165.1541.1608.2403Z"/>
    <path class="cls-21" d="m196.3735,242.2672c.1785.2728.2651.6197.3246.9538.0777.4361.1166.9212-.1075,1.2932-.4259.7067-1.4895.9874-2.0817,1.5291-.4663.4265-.8649.9408-1.1696,1.5138-.2413.4539-.361,1.2982-.9122,1.4166-.1418.0305-.2896.0375-.4319.0633-.15.0272-.2933-.0738-.3134-.2371-.0508-.4129-.1327-1.0795-.1381-1.1516-.062-.8129-.061-1.407.3491-2.1297.5066-.8928,1.0783-1.7423,1.7079-2.538.3304-.4175.6898-.8307,1.1517-1.059s1.0519-.2324,1.4373.1256c.0704.0654.1312.1395.1839.2201Z"/>
    <path class="cls-21" d="m172.6882,226.3968c.1289.3038.1548.6621.1563,1.0023.002.4441-.0425.9287-.3262,1.2494-.539.6093-1.6323.6724-2.3066,1.0862-.531.3259-1.0105.7515-1.4076,1.2537-.3146.3978-.5762,1.2036-1.1381,1.2097-.1445.0016-.291-.0211-.4352-.0242-.1521-.0033-.2757-.1313-.2676-.2958.0205-.4159.0537-1.0875.0606-1.1594.0777-.8113.18-1.395.7063-2.0232.6501-.7761,1.3569-1.4966,2.1114-2.1526.396-.3442.8196-.6784,1.3125-.8103s1.0734-.0179,1.3911.4111c.0581.0784.1051.1634.1432.2531Z"/>
    <path class="cls-21" d="m166.3762,224.0929c.1785.2728.2651.6197.3246.9538.0777.4361.1166.9212-.1075,1.2932-.4259.7067-1.4895.9874-2.0817,1.5291-.4663.4265-.8649.9408-1.1696,1.5138-.2413.4539-.361,1.2982-.9122,1.4166-.1418.0305-.2896.0375-.4319.0633-.15.0272-.2933-.0738-.3134-.2371-.0508-.4129-.1327-1.0795-.1381-1.1516-.062-.8129-.061-1.407.3491-2.1297.5066-.8928,1.0783-1.7423,1.7079-2.538.3304-.4175.6898-.8307,1.1517-1.059s1.0519-.2324,1.4373.1256c.0704.0654.1312.1395.1839.2201Z"/>
    <path class="cls-21" d="m162.5979,220.9828c.1785.2728.2651.6197.3246.9538.0777.4361.1166.9212-.1075,1.2932-.4259.7067-1.4895.9874-2.0817,1.5291-.4663.4265-.8649.9408-1.1696,1.5138-.2413.4539-.361,1.2982-.9122,1.4166-.1418.0305-.2896.0375-.4319.0633-.15.0272-.2933-.0738-.3134-.2371-.0508-.4129-.1327-1.0795-.1381-1.1516-.062-.8129-.061-1.407.3491-2.1297.5066-.8928,1.0783-1.7423,1.7079-2.538.3304-.4175.6898-.8307,1.1517-1.059s1.0519-.2324,1.4373.1256c.0704.0654.1312.1395.1839.2201Z"/>
    <path class="cls-2" d="m46.169,22.0256c.0149-.0006.0299-.0007.0446-.0008.4562-.0032.9123-.0065,1.3685-.0097.1849-.0013.3716-.0025.5525.0393.1569.0362.3059.1039.4539.1712,1.0529.4791,2.1119.9616,3.0727,1.6302.2661.1852.2458.3984.2458.697v2.8561c0,.0551.02.1465.0555.1071.2784-.3085.6422-.668.8988-1.0016.1549-.2014.2644-.4387.3324-.6902l.3549-1.3137c.0746-.276.3516-.8573.2088-1.1348-.0401-.078-.1017-.1397-.1633-.1994l-1.0741-1.0416c-.2202-.2057-.431-.426-.6644-.6154-.3403-.276-.7229-.4818-1.1073-.6747-.3872-.1943-.7628-.4311-1.1446-.642-.329-.1817-.6338-.4327-1.0011-.5187-.1595-.0373-.3239-.0411-.4871-.0447-.4701-.0105-.9403-.021-1.4104-.0315-.2351-.0052-.4701-.0105-.7052-.0157-.1687-.0038-.4763-.0748-.6293.0236-.0623.04-.097.1147-.1283.1854-.2588.5906-.5193,1.1803-.7749,1.7726-.063.1461-.0907.307-.0819.468.0566,1.0252.0939,2.0516.1582,3.0764.001.0163.022.0218.0299.0079.5116-.9148.9014-1.9023,1.3134-2.8723.0299-.0702.0628-.1441.123-.1857.0467-.0323.103-.0402.1591-.0423Z"/>
    <path class="cls-2" d="m45.4695,45.2732c.2313.2545.4879.4824.7632.6776.9282.6584,2.0551.9567,3.1643.9283.6956-.0178,1.4324-.1841,1.9277-.7134.6039-.6454.7724-1.6796,1.0175-2.5375.072-.4525.3086-1.1409.1868-1.5589-.4807.2291-.9096.6918-1.1854,1.1787-.2101.371-.3586.7996-.6672,1.0783-.3605.3255-.8616.378-1.3295.4166-1.2715.1048-1.5666-.5095-2.5579-1.1466-.5518-.3546-1.1739-.5313-1.405-1.2469-.2499-.7737.1103-1.6266-.105-2.4076-.7019.3145-1.0099,1.5354-1.0147,2.2872-.0071,1.1216.4854,2.252,1.2052,3.0442Z"/>
  </g>
  <g>
    <rect class="cls-7" x="93.463" y="174.473" width="3.2223" height="84.8032"/>
    <rect class="cls-7" x="7.6474" y="165.2548" width="3.2223" height="72.6939"/>
    <rect class="cls-7" x="5.0714" y="175.0459" width="3.2223" height="83.6575"/>
    <rect class="cls-7" x="51.1287" y="150.6571" width="3.2223" height="84.4932"/>
    <polygon class="cls-10" points="98.0542 175.0459 4.2696 175.0459 4.2696 167.0463 98.0542 165.3474 98.0542 175.0459"/>
    <path class="cls-7" d="m78.113,166.4269l-73.4718.558-.7155-16.9113,49.557-1.4883,44.5715,16.7621c.0066.0025-19.9341,1.0794-19.9412,1.0795Z"/>
    <path class="cls-14" d="m27.7702,151.39c.9654,1.4292.1183,1.207-1.9274,1.207s-4.6237,1.3203-4.6237-.4505,1.4891-2.1934,3.5348-2.1934,2.0457,0,3.0163,1.4369Z"/>
    <path class="cls-3" d="m30.2843,152.1773l-3.4705.8224c-1.0489.2486-1.3247,1.729-.4468,2.3987l12.3756,9.4399c.3407.2599.7795.316,1.1667.1491l3.6078-1.5545c.9331-.4021,1.0558-1.7786.2109-2.3666l-12.513-8.7078c-.2757-.1919-.6106-.2571-.9308-.1812Z"/>
    <line class="cls-13" x1="21.219" y1="152.1464" x2="22.7779" y2="151.5115"/>
    <polygon class="cls-9" points="31.561 151.5338 26.7167 152.3116 26.7167 108.3921 31.1304 107.6078 31.561 151.5338"/>
    <path class="cls-8" d="m.219,100.7231l26.49,7.6667c.0051.0015.0105.0018.0157.0008l4.2254-.7508c.0402-.0071.0424-.0688.0029-.0794l-29.1971-7.793c-.009-.0024,1.076.2872-.0266.0036l-1.5183.8771c-.03.0173-.0249.0655.008.075Z"/>
    <polygon class="cls-11" points="26.7167 152.3116 .1272 140.8066 .1272 100.6966 26.709 108.3899 26.7167 152.3116"/>
    <path class="cls-8" d="m15.0739,162.319l-2.979.3729c-1.0073.1261-1.968-.4932-2.3459-1.5124l-2.8709-7.7406c-.5789-1.5609.4417-3.2726,1.9934-3.3431l2.3615-.1072c.8819-.0401,1.7039.4822,2.1021,1.3354l3.4884,7.4749c.7061,1.5131-.1947,3.3254-1.7496,3.52Z"/>
    <path class="cls-14" d="m13.1418,148.6047c0,8.423-.4096,7.7881-2.1643,7.7881s-1.261.6349-1.261-7.7881.5059-7.8287,2.2606-7.8287,1.1647-.5943,1.1647,7.8287Z"/>
    <path class="cls-19" d="m8.8815,155.3602c.9911,1.4871,2.7237,2.2914,4.4953,1.9852.373-.0645.5927-.4949.5467-.8374-.0499-.3715-.367-.6614-.7496-.6618-.1301-.0001-.2602-.0009-.3902-.0069-.0749-.0035-.1493-.0108-.224-.0158-.1607-.0109.1562.0301-.0453-.0078-.0632-.0119-.1259-.0259-.1877-.0433-.0216-.0061-.2264-.0806-.1144-.0337.1114.0466-.0832-.0472-.103-.0593-.0313-.0191-.0618-.0394-.0914-.0609.0806.0633.089.0673.0252.0119-.2302-.2087-.6472-.3231-.9249-.1193-.5233.3838-.816.9664-.7279,1.6218.0834.6204.5249,1.1587,1.1307,1.339.6051.18,1.2718-.0855,1.687-.5361.4053-.4398.5996-1.0053.7661-1.5684.1132-.3828-.1364-.8485-.5331-.9389-.4097-.0933-.8177.1232-.9389.5331-.0479.162-.0957.3242-.1532.4832-.0142.0395-.0291.0788-.0446.1179.0371-.0856.0379-.0889.0024-.01-.0385.0735-.0739.1476-.1177.2183-.0216.0351-.0444.0694-.0684.1029.0604-.0761.0631-.0819.0081-.0175-.0265.0288-.0542.0565-.0831.083-.0645.0551-.0583.0516.0184-.0105-.0314.0217-.0638.0419-.0971.0604-.0763.038-.0666.0354.029-.0078-.0348.0122-.0702.0222-.1062.03.1128-.0111.1261-.0143.0397-.0095-.0884-.0047-.0735-.0013.0447.0102-.0318-.0072-.063-.0165-.0935-.0279.1061.0469.1228.0509.05.012-.0674-.0455-.0559-.0356.0346.0298-.0251-.0225-.0489-.0464-.0713-.0716.0649.0893.0742.0998.028.0317-.0181-.0293-.0345-.0595-.0491-.0906.0418.1033.0496.1152.0237.0359-.0177-.0838-.0172-.0678.0013.0478-.0026-.035-.0031-.0699-.0016-.105.0068-.0855.0043-.0699-.0075.0469.0072-.0342.0163-.0679.0272-.1011.0286-.0785.0231-.0656-.0166.0386.0159-.0305.0334-.06.0526-.0885-.0698.0852-.0776.0973-.0234.0363.0604-.0554.0472-.0478-.0396.0227l-.9249-.1193c.6195.5615,1.4051.6621,2.2103.663l-.2029-1.4992c-.0263.0045-.1813.0304-.0563.0105.1149-.0183-.0067-.001-.0305.0011-.0792.007-.1587.0111-.2383.0123-.0795.0012-.159-.0006-.2384-.0052-.0441-.0025-.0881-.0072-.1322-.01-.1028-.0065.0019-.0027.0448.0084-.1543-.0397-.3139-.0559-.4683-.0999-.0857-.0244-.1706-.052-.2543-.0826-.0238-.0087-.0757-.0407-.1002-.0383.0591-.0059.1277.057.0095.0028-.1474-.0676-.2902-.1447-.4277-.2306-.0692-.0433-.1355-.0904-.2031-.1361-.0778-.0527-.0179-.0058.0237.0211-.0377-.0243-.0717-.0576-.1059-.0865-.126-.1066-.2449-.2213-.3559-.3435-.0536-.0589-.1216-.1214-.1616-.19.0258.0443.0716.0977.0184.0212-.032-.046-.0642-.0917-.0953-.1384-.2211-.3317-.6837-.5063-1.0443-.2738-.3307.2132-.5106.6889-.2738,1.0443h0Z"/>
  </g>
</svg>